<?xml version="1.0" encoding="UTF-8"?>
<svg width="192px" height="34px" viewBox="0 0 192 34" version="1.1" xmlns="http://www.w3.org/2000/svg" xmlns:xlink="http://www.w3.org/1999/xlink">
    <!-- Generator: sketchtool 52.4 (67378) - http://www.bohemiancoding.com/sketch -->
    <title>8193D372-66A6-4D12-B2FE-A9182D09C548</title>
    <desc>Created with sketchtool.</desc>
    <defs>
        <linearGradient x1="11.1633431%" y1="100%" x2="11.1633431%" y2="0%" id="linearGradient-1">
            <stop stop-color="#B0BFFF" offset="0%"></stop>
            <stop stop-color="#2133BB" offset="100%"></stop>
        </linearGradient>
    </defs>
    <g id="landing" stroke="none" stroke-width="1" fill="none" fill-rule="evenodd">
        <g id="smena_lp" transform="translate(-150.000000, -4861.000000)">
            <g id="#8-copy-5" transform="translate(0.000000, 4798.000000)">
                <g id="Graph">
                    <g id="Menu" transform="translate(150.000000, 62.000000)">
                        <g id="smena_b" transform="translate(0.000000, 1.000000)">
                            <g id="Group-2">
                                <g id="Group" fill-rule="nonzero">
                                    <path d="M6.05989496,32.5788886 L10.8301818,28.0746655 C11.6090109,27.3392757 12.6396063,26.9296023 13.7107613,26.9296023 L38.6240503,26.9296023 C41.4820231,26.9296023 43.7988678,24.6127575 43.7988678,21.7547847 L43.7988678,7.96544989 C43.7988678,5.10747708 41.4820231,2.79063236 38.6240503,2.79063236 L5.25172373,2.79063236 C2.39375093,2.79063236 0.0769062038,5.10747708 0.0769062038,7.96544989 L0.0769062038,29.9995305 C0.0769062038,31.9587578 1.66517372,33.5470253 3.624401,33.5470253 C4.53004912,33.5470253 5.40140467,33.2006515 6.05989496,32.5788886 Z" id="Path-2" fill="url(#linearGradient-1)" opacity="0.25"></path>
                                    <ellipse id="Oval" fill="#1627D2" cx="37.1637459" cy="18.9065342" rx="5.23825419" ry="5.23243567"></ellipse>
                                    <ellipse id="Oval" stroke="#1627D2" stroke-width="1.47377405" cx="6.71202817" cy="18.9065342" rx="4.50136716" ry="4.49554865"></ellipse>
                                    <ellipse id="Oval" stroke="#1627D2" stroke-width="1.47377405" cx="37.0240591" cy="5.23243567" rx="4.50136716" ry="4.49554865"></ellipse>
                                    <ellipse id="Oval" fill="#1627D2" cx="6.71202817" cy="5.23243567" rx="5.23825419" ry="5.23243567"></ellipse>
                                    <ellipse id="Oval" fill="#1627D2" cx="21.937887" cy="5.37196729" rx="5.23825419" ry="5.23243567"></ellipse>
                                    <ellipse id="Oval" fill="#1627D2" cx="21.937887" cy="18.9065342" rx="5.23825419" ry="5.23243567"></ellipse>
                                </g>
                                <path d="M65.0039674,17.2850036 C65.0039674,19.859731 67.0418818,21.9195129 69.5892748,21.9195129 C70.8459886,21.9195129 72.0008068,21.4045675 72.8159726,20.5806547 L75.9407747,23.738987 C74.3104431,25.3868126 72.0687373,26.3823738 69.5892748,26.3823738 C64.6303497,26.3823738 60.5884861,22.2971396 60.5884861,17.2850036 C60.5884861,12.2728675 64.6303497,8.18763326 69.5892748,8.18763326 C72.0687373,8.18763326 74.3104431,9.21752424 75.9407747,10.8653498 L72.8159726,14.0236821 C72.0008068,13.1654396 70.8459886,12.6504942 69.5892748,12.6504942 C67.0418818,12.6504942 65.0039674,14.7102761 65.0039674,17.2850036 Z M92.9266298,8.70257875 L97.0364238,15.7058374 L101.146218,8.70257875 L106.308934,8.70257875 L106.308934,25.8674284 L101.893453,25.8674284 L101.893453,16.2207829 L99.2441644,20.7179735 L94.8286832,20.7179735 L92.1793945,16.2207829 L92.1793945,25.8674284 L87.7639133,25.8674284 L87.7639133,8.70257875 L92.9266298,8.70257875 Z M134.197632,19.516434 L123.090998,19.516434 C123.872199,20.9582814 125.366669,21.9195129 127.132862,21.9195129 C128.389575,21.9195129 129.544394,21.4045675 130.359559,20.5806547 L133.484362,23.738987 C131.85403,25.3868126 129.612324,26.3823738 127.132862,26.3823738 C122.173937,26.3823738 118.132073,22.2971396 118.132073,17.2850036 C118.132073,12.2728675 121.868249,8.18763326 126.521487,8.18763326 C132.193682,8.18763326 134.944867,11.757922 134.944867,16.1864532 C134.944867,17.3879927 134.673145,18.486543 134.197632,19.516434 Z M126.521487,12.6504942 C124.993051,12.6504942 123.702372,13.6117257 123.023068,15.0535731 L130.325594,15.0535731 C129.951977,13.6460554 129.00095,12.6504942 126.521487,12.6504942 Z M157.636882,25.8674284 L157.636882,19.516434 L151.183487,19.516434 L151.183487,25.8674284 L146.768005,25.8674284 L146.768005,8.70257875 L151.183487,8.70257875 L151.183487,15.0535731 L157.636882,15.0535731 L157.636882,8.70257875 L162.052363,8.70257875 L162.052363,25.8674284 L157.636882,25.8674284 Z M191.877079,8.70257875 L191.877079,25.8674284 L187.461598,25.8674284 L187.461598,25.112175 C186.136954,25.9017581 184.574553,26.3823738 182.876291,26.3823738 C177.917366,26.3823738 173.875502,22.2971396 173.875502,17.2850036 C173.875502,12.2728675 177.917366,8.18763326 182.876291,8.18763326 C184.574553,8.18763326 186.136954,8.66824905 187.461598,9.49216183 L187.461598,8.70257875 L191.877079,8.70257875 Z M187.461598,17.2850036 C187.461598,14.7102761 185.423684,12.6504942 182.876291,12.6504942 C180.328898,12.6504942 178.290983,14.7102761 178.290983,17.2850036 C178.290983,19.859731 180.328898,21.9195129 182.876291,21.9195129 C185.423684,21.9195129 187.461598,19.859731 187.461598,17.2850036 Z" id="cмена" fill="#303030"></path>
                            </g>
                        </g>
                    </g>
                </g>
            </g>
        </g>
    </g>
</svg>