<?xml version="1.0" encoding="UTF-8"?>
<svg width="192px" height="34px" viewBox="0 0 192 34" version="1.1" xmlns="http://www.w3.org/2000/svg" xmlns:xlink="http://www.w3.org/1999/xlink">
    <!-- Generator: sketchtool 52.4 (67378) - http://www.bohemiancoding.com/sketch -->
    <title>8EA6B85E-D2BC-4687-B028-D79AA3B72408</title>
    <desc>Created with sketchtool.</desc>
    <defs>
        <linearGradient x1="11.1633431%" y1="100%" x2="11.1633431%" y2="0%" id="linearGradient-1">
            <stop stop-color="#FFFFFF" stop-opacity="0.185971467" offset="0%"></stop>
            <stop stop-color="#FFFFFF" offset="100%"></stop>
        </linearGradient>
    </defs>
    <g id="landing" stroke="none" stroke-width="1" fill="none" fill-rule="evenodd">
        <g id="smena_lp" transform="translate(-150.000000, -61.000000)">
            <g id="#1">
                <g id="Menu" transform="translate(150.000000, 60.000000)">
                    <g id="smena_w" transform="translate(0.000000, 1.000000)">
                        <g id="Group-3">
                            <g id="Group-2" transform="translate(60.525373, 8.179104)" fill="#FFFFFF">
                                <path d="M4.41088175,9.08789386 C4.41088175,11.6599393 6.44667333,13.7175756 8.9914128,13.7175756 C10.2468176,13.7175756 11.4004328,13.2031666 12.2147495,12.380112 L15.3362965,15.5351544 C13.7076633,17.1812635 11.4682926,18.1757877 8.9914128,18.1757877 C4.03765329,18.1757877 0,14.094809 0,9.08789386 C0,4.08097875 4.03765329,0 8.9914128,0 C11.4682926,0 13.7076633,1.02881817 15.3362965,2.67492725 L12.2147495,5.82996965 C11.4004328,4.97262117 10.2468176,4.45821208 8.9914128,4.45821208 C6.44667333,4.45821208 4.41088175,6.51584843 4.41088175,9.08789386 Z M32.3044581,0.514409087 L36.4099711,7.51037266 L40.5154841,0.514409087 L45.6728228,0.514409087 L45.6728228,17.6613786 L41.261941,17.6613786 L41.261941,8.02478175 L38.615412,12.5172878 L34.2045302,12.5172878 L31.5580012,8.02478175 L31.5580012,17.6613786 L27.1471194,17.6613786 L27.1471194,0.514409087 L32.3044581,0.514409087 Z M73.5324692,11.3169999 L62.4374051,11.3169999 C63.2177919,12.7573453 64.7107057,13.7175756 66.4750584,13.7175756 C67.7304632,13.7175756 68.8840784,13.2031666 69.6983951,12.380112 L72.8199422,15.5351544 C71.1913089,17.1812635 68.9519382,18.1757877 66.4750584,18.1757877 C61.5212989,18.1757877 57.4836456,14.094809 57.4836456,9.08789386 C57.4836456,4.08097875 61.2159302,0 65.8643209,0 C71.5306075,0 74.2789261,3.56656967 74.2789261,7.99048781 C74.2789261,9.19077568 74.0074873,10.2881817 73.5324692,11.3169999 Z M65.8643209,4.45821208 C64.3374773,4.45821208 63.0481426,5.41844238 62.3695454,6.85878782 L69.6644652,6.85878782 C69.2912368,5.45273632 68.3412007,4.45821208 65.8643209,4.45821208 Z M96.9473041,17.6613786 L96.9473041,11.3169999 L90.5006307,11.3169999 L90.5006307,17.6613786 L86.089749,17.6613786 L86.089749,0.514409087 L90.5006307,0.514409087 L90.5006307,6.85878782 L96.9473041,6.85878782 L96.9473041,0.514409087 L101.358186,0.514409087 L101.358186,17.6613786 L96.9473041,17.6613786 Z M131.151834,0.514409087 L131.151834,17.6613786 L126.740953,17.6613786 L126.740953,16.906912 C125.417688,17.6956726 123.856914,18.1757877 122.160421,18.1757877 C117.206662,18.1757877 113.169009,14.094809 113.169009,9.08789386 C113.169009,4.08097875 117.206662,0 122.160421,0 C123.856914,0 125.417688,0.480115148 126.740953,1.30316969 L126.740953,0.514409087 L131.151834,0.514409087 Z M126.740953,9.08789386 C126.740953,6.51584843 124.705161,4.45821208 122.160421,4.45821208 C119.615682,4.45821208 117.57989,6.51584843 117.57989,9.08789386 C117.57989,11.6599393 119.615682,13.7175756 122.160421,13.7175756 C124.705161,13.7175756 126.740953,11.6599393 126.740953,9.08789386 Z" id="cмена"></path>
                            </g>
                            <g id="Group" fill-rule="nonzero">
                                <path d="M6.05358257,32.5449523 L10.8189004,28.045421 C11.5969182,27.3107973 12.6264401,26.9015506 13.6964792,26.9015506 L38.5838169,26.9015506 C41.4388127,26.9015506 43.753244,24.5871192 43.753244,21.7321235 L43.753244,7.95715254 C43.753244,5.10215679 41.4388127,2.78772545 38.5838169,2.78772545 L5.24625319,2.78772545 C2.39125744,2.78772545 0.0768260932,5.10215679 0.0768260932,7.95715254 L0.0768260932,29.968281 C0.0768260932,31.9254674 1.66343917,33.5120805 3.62062558,33.5120805 C4.52533032,33.5120805 5.39577821,33.1660675 6.05358257,32.5449523 Z" id="Path-2" fill="url(#linearGradient-1)" opacity="0.5"></path>
                                <ellipse id="Oval" fill="#FFFFFF" cx="37.1250336" cy="18.8868399" rx="5.23279767" ry="5.22698522"></ellipse>
                                <ellipse id="Oval" stroke="#FFFFFF" stroke-width="1.47223886" cx="6.70503648" cy="18.8868399" rx="4.49667824" ry="4.49086579"></ellipse>
                                <ellipse id="Oval" stroke="#FFFFFF" stroke-width="1.47223886" cx="36.9854923" cy="5.22698522" rx="4.49667824" ry="4.49086579"></ellipse>
                                <ellipse id="Oval" fill="#FFFFFF" cx="6.70503648" cy="5.22698522" rx="5.23279767" ry="5.22698522"></ellipse>
                                <ellipse id="Oval" fill="#FFFFFF" cx="21.915035" cy="5.36637149" rx="5.23279767" ry="5.22698522"></ellipse>
                                <ellipse id="Oval" fill="#FFFFFF" cx="21.915035" cy="18.8868399" rx="5.23279767" ry="5.22698522"></ellipse>
                            </g>
                        </g>
                    </g>
                </g>
            </g>
        </g>
    </g>
</svg>