<?xml version="1.0" encoding="UTF-8"?>
<svg width="492px" height="382px" viewBox="0 0 492 382" version="1.1" xmlns="http://www.w3.org/2000/svg" xmlns:xlink="http://www.w3.org/1999/xlink">
    <!-- Generator: sketchtool 52.4 (67378) - http://www.bohemiancoding.com/sketch -->
    <title>0AF39B78-6B2A-463C-88AF-3193AAC00E6A</title>
    <desc>Created with sketchtool.</desc>
    <defs>
        <radialGradient cx="104.079171%" cy="-11.773732%" fx="104.079171%" fy="-11.773732%" r="166.686723%" gradientTransform="translate(1.040792,-0.117737),scale(0.769215,1.000000),rotate(37.295583),translate(-1.040792,0.117737)" id="radialGradient-1">
            <stop stop-color="#3023AE" offset="0%"></stop>
            <stop stop-color="#C86DD7" offset="100%"></stop>
        </radialGradient>
        <path d="M45.1930665,74.6724317 C105.849096,14.7842 157.217425,-12.6234423 304.5,6 C347.5,16 371.693067,11.6724317 430.693067,55.6724317 C527.693067,153.172432 437.72837,243.046106 387,273 C334.5,304 238.219977,427.175697 96.6930665,324.672432 C85.2181415,316.361523 38.0470469,274.670196 25.6930665,263.172432 C-7.79065089,232.009368 -15.462963,134.560663 45.1930665,74.6724317 Z" id="path-2"></path>
        <filter x="-3.7%" y="-2.6%" width="107.4%" height="109.6%" filterUnits="objectBoundingBox" id="filter-4">
            <feOffset dx="0" dy="8" in="SourceAlpha" result="shadowOffsetOuter1"></feOffset>
            <feGaussianBlur stdDeviation="4.5" in="shadowOffsetOuter1" result="shadowBlurOuter1"></feGaussianBlur>
            <feComposite in="shadowBlurOuter1" in2="SourceAlpha" operator="out" result="shadowBlurOuter1"></feComposite>
            <feColorMatrix values="0 0 0 0 0   0 0 0 0 0.329411765   0 0 0 0 0.88627451  0 0 0 1 0" type="matrix" in="shadowBlurOuter1"></feColorMatrix>
        </filter>
        <linearGradient x1="7.89386017%" y1="39.9356639%" x2="93.6411615%" y2="39.9356639%" id="linearGradient-5">
            <stop stop-color="#CFF2FF" offset="0%"></stop>
            <stop stop-color="#95BDDC" offset="100%"></stop>
        </linearGradient>
        <linearGradient x1="94.4719894%" y1="39.9356639%" x2="7.89386017%" y2="39.9356639%" id="linearGradient-6">
            <stop stop-color="#5ED2FD" offset="0%"></stop>
            <stop stop-color="#3170AD" offset="100%"></stop>
        </linearGradient>
    </defs>
    <g id="landing" stroke="none" stroke-width="1" fill="none" fill-rule="evenodd">
        <g id="smena_lp" transform="translate(-141.000000, -1883.000000)">
            <g id="#8" transform="translate(0.000000, 1600.000000)">
                <g id="Graph">
                    <g id="Group-4" transform="translate(150.000000, 284.000000)">
                        <mask id="mask-3" fill="white">
                            <use xlink:href="#path-2"></use>
                        </mask>
                        <g id="Path">
                            <use fill="black" fill-opacity="1" filter="url(#filter-4)" xlink:href="#path-2"></use>
                            <use fill-opacity="0.4" fill="url(#radialGradient-1)" fill-rule="evenodd" xlink:href="#path-2"></use>
                        </g>
                        <g id="Group-4-Copy" mask="url(#mask-3)">
                            <g transform="translate(117.000000, 19.000000)">
                                <path d="M38.9546071,12.8289474 L127.914474,12.8289474 C142.321112,12.8289474 154,24.5078353 154,38.9144737 L154,38.9144737 C154,53.3211121 142.321112,65 127.914474,65 L38.9546071,65 C24.5479687,65 12.8690808,53.3211121 12.8690808,38.9144737 L12.8690808,38.9144737 C12.8690808,24.5078353 24.5479687,12.8289474 38.9546071,12.8289474 Z" id="Rectangle-Copy-2" fill-opacity="0.45" fill="url(#linearGradient-5)"></path>
                                <rect id="Rectangle" fill="#FFFFFF" x="0" y="0" width="141.130919" height="52.1710526" rx="26.0855263"></rect>
                                <g id="Group-13" stroke-width="1" fill="none" transform="translate(28.884161, 23.024435) rotate(-15.000000) translate(-28.884161, -23.024435) translate(14.884161, 13.024435)">
                                    <path d="M11.9480818,12.5385723 C11.8886557,12.4179745 11.9371513,12.27209 12.056042,12.2130308 L13.7704933,11.3615967 C14.4664413,11.0160286 15.2696755,11.0113024 15.9741981,11.348803 L23.0198325,14.7245446 C23.2401832,14.8293951 23.4898638,14.8283881 23.7068687,14.7206101 L25.3697615,13.8947615 C25.7572154,13.7023387 25.9149713,13.2275191 25.7206435,12.8367719 L20.3229401,1.98957908 C20.2634687,1.86889945 20.3119643,1.72301499 20.4309004,1.66403753 C20.5506022,1.60452867 20.6958108,1.65416083 20.7560934,1.77439086 L26.1529857,12.6220333 C26.4668861,13.253363 26.2130861,14.0197473 25.5869943,14.3306564 L23.9241015,15.156505 C23.5732432,15.3307809 23.1692785,15.3327345 22.8142389,15.1627978 L15.7678387,11.7875876 C15.1988615,11.5148054 14.5498207,11.5184213 13.9869603,11.798023 L12.2733202,12.6490074 C12.153573,12.7084345 12.0083644,12.6588024 11.9480818,12.5385723 Z" id="Fill-56" fill="#828282"></path>
                                    <polygon id="Fill-57" fill="#0148DE" points="1.66514107 19.205164 0.659330274 17.1784962 12.5396031 11.2645053 13.5454139 13.2911731"></polygon>
                                    <polygon id="Fill-58" fill="#0038AD" points="1.71216578 19.3272116 0.448608768 16.8159669 1.13518746 16.4791868 2.39878999 18.9905135"></polygon>
                                    <polygon id="Fill-59" fill="#0038AD" points="13.3206659 13.6324757 12.0578421 11.1208246 12.7436876 10.7844509 14.0072901 13.2957776"></polygon>
                                    <path d="M23.8508501,13.1388345 L18.5431284,2.44400729 C18.4392835,2.23536184 18.5267853,1.98069082 18.7379429,1.87550395 L21.803096,0.349592085 C22.0142985,0.244486215 22.2700304,0.328171673 22.3739202,0.536898117 L27.6816419,11.2317253 C27.7854868,11.4403707 27.6979849,11.6950418 27.4859612,11.8006028 L24.4216742,13.3261405 C24.2096505,13.4317016 23.954695,13.3474799 23.8508501,13.1388345 Z" id="Fill-60" fill="#0038AD"></path>
                                </g>
                                <rect id="Rectangle-3" fill="#0038AD" x="53.6211699" y="19.6842105" width="67.7771588" height="5.13157895" rx="2.56578947"></rect>
                                <rect id="Rectangle-3-Copy" fill="#0038AD" x="53.6211699" y="27.8092105" width="67.7771588" height="5.13157895" rx="2.56578947"></rect>
                            </g>
                        </g>
                        <g id="Group-4-Copy-3" mask="url(#mask-3)">
                            <g transform="translate(291.000000, 19.000000)">
                                <path d="M38.9546071,12.8289474 L127.914474,12.8289474 C142.321112,12.8289474 154,24.5078353 154,38.9144737 L154,38.9144737 C154,53.3211121 142.321112,65 127.914474,65 L38.9546071,65 C24.5479687,65 12.8690808,53.3211121 12.8690808,38.9144737 L12.8690808,38.9144737 C12.8690808,24.5078353 24.5479687,12.8289474 38.9546071,12.8289474 Z" id="Rectangle-Copy-2" fill-opacity="0.45" fill="url(#linearGradient-5)"></path>
                                <rect id="Rectangle" fill="#FFFFFF" x="0" y="0" width="141.130919" height="52.1710526" rx="26.0855263"></rect>
                                <g id="Group-14" stroke-width="1" fill="none" transform="translate(31.000000, 26.500000) rotate(-13.000000) translate(-31.000000, -26.500000) translate(17.000000, 16.000000)">
                                    <path d="M0.188737406,19.0705528 L25.8965752,2.7748214 C26.0882277,2.65307636 26.3444163,2.70690855 26.4685993,2.89512963 L27.2508544,4.07800097 C27.3750374,4.26622206 27.3193017,4.51747086 27.1276492,4.6392159 L1.42078927,20.9348515 C1.22815894,21.0565965 0.971970377,21.0027643 0.847787372,20.814639 L0.0665100381,19.6316719 C-0.0576729674,19.4435466 -0.00291510671,19.1922978 0.188737406,19.0705528" id="Fill-125" fill="#0038AD"></path>
                                    <path d="M20.7110676,0.00118050972 L17.6868204,1.83539279 C17.6868204,1.83539279 16.7401169,3.8326775 17.1984575,4.74193548 L23.902439,0.764378241 C23.2809772,-0.0634845198 20.7110676,0.00118050972 20.7110676,0.00118050972" id="Fill-126" fill="#303030"></path>
                                    <path d="M23.7180914,0.703264445 L23.6992981,0.677419355 L17.0731707,4.91671541 C17.0899858,4.95297868 17.1087791,4.9882402 17.1295507,5.02109752 L21.409481,11.516129 L28,7.2021026 L23.7180914,0.703264445" id="Fill-127" fill="#4D4D4D"></path>
                                    <path d="M27.8280258,7.4516129 L21.1707317,11.3592668 L21.1907146,11.3870327 C21.778211,12.2115736 24.1311943,12.1935166 24.1311943,12.1935166 L27.1506064,10.4227546 C27.1506064,10.4227546 28.4335068,8.30047165 27.8460103,7.47593082 L27.8280258,7.4516129" id="Fill-128" fill="#303030"></path>
                                </g>
                                <rect id="Rectangle-3" fill="#0038AD" x="53.6211699" y="19.6842105" width="67.7771588" height="5.13157895" rx="2.56578947"></rect>
                                <rect id="Rectangle-3-Copy" fill="#0038AD" x="53.6211699" y="27.8092105" width="67.7771588" height="5.13157895" rx="2.56578947"></rect>
                            </g>
                        </g>
                        <g id="Group-4-Copy-4" mask="url(#mask-3)">
                            <g transform="translate(-9.000000, 92.000000)">
                                <path d="M38.9546071,12.8289474 L127.914474,12.8289474 C142.321112,12.8289474 154,24.5078353 154,38.9144737 L154,38.9144737 C154,53.3211121 142.321112,65 127.914474,65 L38.9546071,65 C24.5479687,65 12.8690808,53.3211121 12.8690808,38.9144737 L12.8690808,38.9144737 C12.8690808,24.5078353 24.5479687,12.8289474 38.9546071,12.8289474 Z" id="Rectangle-Copy-2" fill-opacity="0.45" fill="url(#linearGradient-5)"></path>
                                <rect id="Rectangle" fill="#FFFFFF" x="0" y="0" width="141.130919" height="52.1710526" rx="26.0855263"></rect>
                                <path d="M33.2939434,15.1052982 C34.1839394,14.8254645 34.778983,14.3336138 34.496363,13.450159 L34.0338939,12 C35.4079409,12.4312744 36.2486069,13.8381938 35.9341279,15.2623478 C35.7234476,16.220962 35.0389934,16.9545059 34.1788009,17.2785991 L30.2385644,35.1405397 C31.246747,35.7292716 31.7739617,36.7410175 31.6660523,37.7064645 C31.6074729,38.2341102 31.3207421,39.0367967 30.8099707,39.4465533 L30.4399954,37.6087674 C30.1995115,36.8560513 29.4760043,36.8236215 28.7175551,37.0620513 C27.9591058,37.3004811 27.4524452,37.7195179 27.6929291,38.4722341 L27.9837708,40 C26.6086961,39.5736206 25.7587807,38.2109607 26.0609272,36.8405503 C26.2572196,35.949243 26.8964546,35.2639358 27.7124556,34.942902 L31.6650246,17.0189574 C30.6989781,16.4060562 30.1686802,15.2430735 30.4276629,14.0665275 C30.5057688,13.7137779 30.6496481,13.3929481 30.8408019,13.1100549 L31.2724397,14.4635366 C31.5550597,15.3469914 32.4039474,15.385132 33.2939434,15.1052982" id="Fill-66" fill="#4D4D4D" transform="translate(31.000000, 26.000000) rotate(29.000000) translate(-31.000000, -26.000000) "></path>
                                <rect id="Rectangle-3" fill="#0038AD" x="53.6211699" y="19.6842105" width="67.7771588" height="5.13157895" rx="2.56578947"></rect>
                                <rect id="Rectangle-3-Copy" fill="#0038AD" x="53.6211699" y="27.8092105" width="67.7771588" height="5.13157895" rx="2.56578947"></rect>
                            </g>
                        </g>
                        <rect id="Rectangle-2" fill-opacity="0.45" fill="url(#linearGradient-6)" mask="url(#mask-3)" transform="translate(234.000000, 433.000000) scale(-1, 1) translate(-234.000000, -433.000000) " x="-4" y="252" width="476" height="362"></rect>
                        <g id="Group-10" transform="translate(50.000000, 115.000000)">
                            <path d="M60.8690179,49.5309587 C74.7698291,46.6656555 89.9367483,47.5091691 102.151613,54.7484092 C124.915181,68.2402209 131.023713,98.800518 150.052701,117.203649 C158.579147,125.451581 169.457565,130.986175 177.751012,139.465358 C186.05545,147.944541 191.396843,161.381293 185.508122,171.688456 C180.261247,180.887819 168.494795,183.803777 157.957084,184.693541 C138.943482,186.296877 119.551807,184.224433 100.914081,188.325274 C94.1856838,189.805277 87.6331351,192.078138 80.8322006,193.181533 C62.2428331,196.201003 43.4820135,190.32504 25.6070299,184.383004 C22.1889778,183.246574 18.5467191,181.944964 16.4255485,179.024601 C14.6802538,176.619597 0.873961096,147.790374 0.524462523,144.836976 C-2.45396871,119.727582 8.01340364,119.53157 12.807469,94.4530096 C14.537377,85.4122184 17.0827817,70.4910586 23.9738384,63.8728911 C31.9595511,56.2063882 50.3291082,51.7025105 60.8690179,49.5309587" id="Fill-770-Copy" fill="#E4AA32"></path>
                            <path d="M138.81174,153.576947 C137.879168,149.254148 133.795069,146.337747 129.665107,144.863014 C128.557814,144.466225 127.426497,144.144385 126.288628,143.848997 C129.927188,142.905521 133.670581,140.540216 136.383121,138.532021 C137.202125,137.925816 136.437721,136.532644 135.572853,137.132237 C133.613797,138.485729 131.538987,139.689323 129.304746,140.515968 C127.223384,141.285298 124.969486,141.49251 122.923069,142.283884 C122.628228,142.398512 122.427299,142.616746 122.320283,142.865842 C120.525027,142.411738 118.749427,141.902525 117.050267,141.166261 C111.114129,138.598153 106.529893,133.470754 100.560995,130.975391 C98.2765204,130.018688 95.7933014,129.449956 93.7709085,128.014902 C90.0297,125.358618 88.7520543,120.471498 86.5964368,116.399999 C81.7654074,107.28046 71.1751446,101.632826 60.9911076,102.741631 L54.4150545,98 C47.3672553,104.747622 42.317825,113.598226 40.0726631,123.138803 C40.0158788,123.376877 39.9612786,123.619359 39.9110464,123.859637 C38.6355847,122.761853 37.4758756,121.525193 36.20915,120.416388 C35.8335003,120.087935 35.2853139,120.630213 35.6587796,120.971893 C37.1526422,122.336407 38.6399527,123.756031 39.596549,125.570239 C39.378148,126.996476 39.2754995,128.446961 39.380332,129.853359 C36.9233211,127.675427 34.2217012,125.790678 31.2798402,124.214543 C30.5329089,123.813345 29.8929941,124.911128 30.6159013,125.358618 C34.1518129,127.547572 37.3623071,130.230309 40.1534714,133.314243 C40.3565843,133.821251 40.5990094,134.312829 40.8960347,134.784567 C42.1562083,136.788353 44.1895213,138.245451 45.2465819,140.366069 C45.6768318,141.232393 45.9170729,142.151621 46.0350094,143.103915 C40.2058877,140.590917 34.0666365,139.490929 27.6347281,139.689323 C26.7873323,139.715776 26.7895163,140.983297 27.6347281,141.014158 C34.0142203,141.256641 40.3412963,142.951813 46.0874257,145.760199 C45.8515526,149.337915 44.6590833,153.138274 45.1592216,156.336836 C42.3527691,157.723394 39.4414843,158.878492 36.3380066,159.740406 C35.9230447,159.857239 36.1021335,160.450218 36.5127273,160.379678 C39.5703408,159.855034 42.6366904,159.059252 45.5894715,157.95265 C45.8581046,158.633805 46.2381223,159.277486 46.7688367,159.868261 C48.0552184,161.30552 49.9400187,162.015331 51.7658508,162.61272 C55.210034,163.741365 58.7241055,164.645162 62.2796733,165.335135 C61.1483563,167.775389 59.5802373,170.001817 57.6058926,171.844683 C56.9550577,172.453093 57.913838,173.398774 58.5712249,172.819021 C60.9277713,170.74249 62.8016516,168.350733 64.1404495,165.67461 C72.2911735,167.074394 80.6340904,167.327898 88.8481507,166.386626 C90.2131568,166.230115 91.5759788,166.040538 92.9409848,165.848756 C93.6158438,166.992832 94.2819668,168.141316 94.9196976,169.305232 C95.3499475,170.092197 96.5467848,169.388998 96.1143509,168.599828 C95.5770845,167.616673 95.0594742,166.622495 94.5484159,165.621705 C96.8612822,165.299865 99.1741484,165.002273 101.493567,164.87001 C105.418232,167.810659 109.945684,170.041496 114.422904,171.582361 C115.40134,171.919632 115.75515,170.427263 114.842234,170.052518 C111.448283,168.650529 108.408141,166.878204 105.555825,164.839148 C110.144429,165.055178 114.632569,166.225706 119.192781,166.78562 C123.777017,167.345534 128.640807,167.237519 132.716169,165.04636 C136.791531,162.857406 139.796728,158.129001 138.81174,153.576947" id="Fill-771-Copy" fill="#282828"></path>
                            <path d="M183.304827,42.36265 C182.181654,41.7454648 180.741853,41.9704802 179.640074,42.6283826 C178.538295,43.2862849 177.714635,44.31707 176.963713,45.3585701 C176.465239,46.0507605 175.665112,47.1286917 174.817918,48.3694912 C174.725925,47.6151537 174.616817,46.8651022 174.488454,46.1150506 C174.338698,45.2428479 173.835944,44.1284856 172.967357,44.2956399 C172.073098,44.4670803 172.051704,45.7335959 172.257084,46.6207997 C172.582269,48.0351826 172.905315,49.4474224 173.230501,50.8618053 C170.838677,54.9249416 166.705401,58.3087454 163,61.1889433 C164.426964,63.0383561 166.230459,64.5920342 168.265007,65.7299695 C168.506756,65.8649788 168.763482,65.9978451 169.039461,65.9999881 C169.4545,66.0021311 169.809637,65.7149685 170.121986,65.4385209 C173.104277,62.8069116 175.814868,59.8688526 178.206691,56.6907772 L178.394957,56.4829057 C180.093622,54.5370578 181.668203,52.4840596 183.105865,50.3367692 C183.948779,49.0873977 184.761742,47.758735 184.954286,46.267204 C185.168224,44.7778159 184.63338,43.0848425 183.304827,42.36265" id="Fill-772-Copy" fill="#EACDB0"></path>
                            <path d="M97.1298066,118.154434 C99.5891622,118.23772 102.353709,118.676493 103.734869,120.533154 C103.872985,120.720039 103.997735,120.929269 103.999963,121.156781 C104.006646,121.806816 103.11112,122.083081 102.407174,122.174492 C98.0966185,122.727021 93.7860633,123.27955 89.4755081,123.830048 C88.3683526,123.972244 87.2277819,124.112407 86.1473586,123.86255 C82.6610439,123.05407 83.9909671,120.246733 86.1161711,118.958852 C88.3950847,117.577529 94.5657503,118.069117 97.1298066,118.154434" id="Fill-773-Copy" fill="#CAAE7A"></path>
                            <path d="M168.182741,62.3715067 L168.118762,61.984367 C167.83858,62.0374605 167.55178,62.0905539 167.249537,62.1436473 C165.305915,62.4953913 163.924862,61.406976 163.516723,60 C154.136154,65.7628497 143.129648,68.844481 132.134174,68.9285456 C126.221679,68.9750023 118.5222,65.6433894 112.929598,67.0968222 C105.483826,69.0325202 103.78288,77.4456171 104.021145,83.9849582 C104.100567,86.1883356 104.552828,88.8098238 106.562635,89.7013511 C107.767196,90.2367098 109.159279,89.9469082 110.443261,89.6482576 C117.542667,87.9979368 124.644279,86.3476159 131.743684,84.697295 C137.757662,83.3013802 143.806938,81.892192 149.487786,79.4653797 C157.452004,76.0651878 164.396979,70.7978768 171,65.1168796 C169.667483,64.8204412 168.531313,63.9156407 168.182741,62.3715067" id="Fill-774-Copy" fill="#5D00AF"></path>
                            <path d="M77.8209032,45.3229744 C76.1076666,35.5530587 76.5387679,23.9357971 84.3924052,17.7875644 C85.9358817,16.5795993 87.7228298,15.648183 89.6460328,15.234466 C95.3620334,14.0110141 101.288,17.7300423 104.127014,22.7942037 C106.963794,27.8583652 107.278744,33.9313766 106.836474,39.7057154 C106.525992,43.7964251 105.869289,47.8627985 104.879766,51.8451011 C103.753989,56.3650146 101.993845,61.0641316 98.1943462,63.8052832 C86.2374292,72.4313931 79.2348259,53.3937743 77.8209032,45.3229744" id="Fill-775-Copy" fill="#EACDB0"></path>
                            <path d="M85.5934613,64.901757 C81.0623621,63.8262599 76.9051452,61.1057561 72.2449675,61.0028062 C65.9846619,60.8670001 60.4921506,65.6793568 57.9573166,71.3153121 C55.420257,76.9512674 55.2244139,83.2969194 55.0686295,89.4607663 C54.7882177,100.520206 55.0085412,112.89828 62.9090336,120.766275 C67.531378,125.370541 74.0431641,127.574106 79.388793,131.346012 C81.0022738,132.485031 82.6424605,133.821189 84.6209218,133.98328 C86.036334,134.099372 87.4205893,133.591194 88.7358543,133.069874 C93.8188753,131.054686 98.7683669,128.719696 103.546496,126.082428 C105.142173,125.204069 106.766781,124.244665 107.821663,122.774892 C108.816458,121.383974 109.201468,119.671064 109.566448,118.010724 C112.083478,106.535104 114.598283,95.0616749 117.115313,83.586055 C122.67904,58.207828 100.777985,68.4984296 85.5934613,64.901757" id="Fill-776-Copy" fill="#5D00AF"></path>
                            <path d="M133.507985,163.999698 C135.014357,164.015319 136.955218,163.426193 136.999329,161.902054 C137.025795,160.964809 136.264889,160.217244 135.554711,159.612498 C131.679605,156.30313 109.930935,137.834936 108.058445,150.228888 C106.757186,158.826997 127.555276,163.941678 133.507985,163.999698" id="Fill-777-Copy" fill="#56514C"></path>
                            <path d="M53.1475414,157.169833 C52.6729905,157.37447 52.1917243,157.588203 51.8044729,157.936087 C50.333813,159.257136 51.0322086,161.93334 52.6685136,163.036108 C54.3025802,164.136604 56.4223899,164.088855 58.374316,163.884217 C62.9250795,163.409004 91.1899547,155.823773 80.6714904,148.929762 C77.0049136,146.526408 73.8778026,149.375417 70.3768709,150.814701 C64.7180759,153.145295 58.7884288,154.727825 53.1475414,157.169833" id="Fill-778-Copy" fill="#56514C"></path>
                            <path d="M96.7358713,127.555163 C98.7344504,125.458432 100.789882,123.318291 103.407277,122.018144 C106.12963,120.663734 109.247763,120.322961 112.287178,120.006064 C117.574447,119.450409 122.861717,118.896924 128.148986,118.341269 C134.28904,117.698792 141.561769,117.48608 145.403676,122.187445 C146.512297,123.541855 147.214205,125.297813 146.940877,127.01036 C146.492618,129.806001 143.750585,131.60971 141.257828,133.066135 C135.325503,136.53464 129.375685,140.011827 123.0607,142.766228 C117.587567,145.151639 111.880465,146.979224 106.186483,148.802468 C100.407222,150.651758 83.5811103,159.522709 78.3047742,154.456695 C71.6945943,148.11441 92.1177106,132.397612 96.7358713,127.555163" id="Fill-779-Copy" fill="#3E0075"></path>
                            <path d="M46.0109217,130.657864 C43.9674735,128.187762 42.0440997,124.799819 43.5221066,121.956912 C44.1290282,120.788355 45.2315296,119.94682 46.4060756,119.35164 C50.3619817,117.339368 55.1649582,117.810279 59.3719289,119.225192 C63.5810828,120.642285 67.4452957,122.920535 71.5867713,124.51858 C82.1555027,128.606349 90.1066119,129.565613 98.7803508,136.906156 C102.751539,140.265757 122.369515,148.138255 115.586402,154.103127 C113.968672,155.524581 111.759303,156.039094 109.632894,156.379197 C87.2728558,159.956812 60.5006284,147.634641 46.0109217,130.657864" id="Fill-780-Copy" fill="#3E0075"></path>
                            <path d="M76.3485888,122.654072 C76.6385865,121.222006 77.4300838,118.912938 76.6974582,117.545259 C76.2090411,116.632733 76.2003194,115.717987 76.4924974,114.943117 C71.9899027,114.241516 67.517834,113.320109 63.0980957,112.178897 C61.8225422,111.848078 60.472854,111.450652 59.6028611,110.404911 C58.1463317,108.653128 58.6587335,105.951074 59.2845179,103.706394 C62.6293025,91.6881399 66.7459606,79.9118939 71.5930638,68.4864486 C72.12727,67.2275626 72.6811,65.8954081 72.5415523,64.5232889 C72.3692981,62.8425539 71.146075,61.4393512 69.706989,60.7111067 C67.1362582,59.4100358 63.9833516,60.0072851 61.5543489,61.5881084 C54.6271123,66.101892 49.5663266,77.6871959 47.3401043,85.8044574 C45.0353863,94.205912 41.9566144,107.38092 45.8792139,115.471539 C48.9797901,121.86588 56.4739393,124.070596 63.1831326,124.996444 C67.3433993,125.57149 71.5320117,125.900088 75.7249849,126 C75.755511,124.874329 76.1305455,123.724236 76.3485888,122.654072" id="Fill-781-Copy" fill="#5D00AF"></path>
                            <path d="M116.577145,11.7209822 C116.490803,11.4208423 116.41553,11.1207025 116.331402,10.8205626 L116.165359,10.4573499 C116.02367,10.2050584 115.943969,9.95494191 115.895263,9.70482537 C115.536611,9.13934449 115.142537,8.59561287 114.666548,8.10625442 L114.540356,8.05188126 C114.033372,7.53207384 113.448902,7.08838884 112.793587,6.75997494 C110.719162,5.71601025 108.224095,5.89217929 105.95706,6.4272112 C101.905621,7.38635376 98.6069077,9.75484867 94.6329548,11.0097812 C90.3025638,12.37781 85.9743867,13.7480136 81.6439957,15.1182173 C77.1254231,16.547144 71.8297711,18.8634407 71.0836863,23.7592001 C70.778168,25.7775319 71.3648518,27.815438 71.944894,29.7685219 C74.8517464,39.5404665 77.7585989,49.312411 80.6632374,59.0843556 C81.256563,61.0787632 82.6778876,63.5581793 84.5597038,62.888302 C86.5101508,62.1923255 86.0784401,59.1822273 85.2615105,57.1943445 C83.4704643,52.8401418 80.1983181,47.539846 79.3902441,42.8637541 C78.7947047,39.407796 80.762863,35.4668292 83.4195446,40.3103904 C84.127993,37.7178781 84.5198535,34.9905203 85.0290508,32.3327602 C85.1840239,31.5171628 85.3677777,30.6493671 85.9367504,30.0686618 C86.461445,29.5336299 87.2185993,29.3465862 87.9403311,29.2269652 C94.4779817,28.1373271 101.608958,30.5797695 107.564353,27.5413972 C108.197528,27.2195081 108.781998,26.838896 109.339901,26.42566 C110.728018,26.0058992 112.027578,25.2446749 113.065897,24.2442087 C115.049553,22.3324484 116.169787,19.6855629 116.639134,16.9951788 C116.805177,16.044736 116.893733,15.0725439 116.86938,14.1090514 L117,13.7001653 C116.85831,13.0411625 116.712193,12.3821598 116.577145,11.7209822" id="Fill-782-Copy" fill="#444045"></path>
                            <path d="M85.1570848,122.180762 C86.3226866,123.02938 87.8877978,123.025017 89.3321781,122.987931 C109.265944,122.473088 129.201904,121.958245 149.13567,121.443403 C151.802724,121.375775 154.592705,121.273243 156.912933,119.96432 C158.79414,118.901911 160.166082,117.150137 161.46339,115.428904 C168.050905,106.678757 174.032572,97.4792135 179.351316,87.9153533 C179.814483,87.0841875 180.275456,86.0566834 179.799117,85.2320622 C179.338145,84.435801 178.264738,84.289638 177.340598,84.232918 C164.051421,83.4322938 150.738098,83.0199832 137.424774,83.0003494 C135.730152,82.9959863 133.956506,83.0199832 132.466028,83.822789 C130.892136,84.6714071 129.884582,86.2552033 128.964833,87.784461 C123.06658,97.6013796 117.976128,107.900418 113.759327,118.539776 C107.562541,117.874407 101.313071,117.712974 95.0877483,118.04893 C93.5950756,118.131829 80.0139495,118.432881 85.1570848,122.180762" id="Fill-783-Copy" fill="#464648"></path>
                            <path d="M169.519926,65.4310993 C169.772426,65.6425836 170.038576,65.9074523 169.995355,66.2154392 L169.720107,66.6938456 C169.158236,67.3406181 168.596366,67.9894438 168.03677,68.6382695 L167.590914,68.9791084 C167.386184,69.0365993 167.16553,68.9647357 166.967625,68.8928721 C165.075009,68.2050346 155.530038,63.8665258 158.605539,61.5463578 C161.348922,59.4746325 167.634135,63.8500998 169.519926,65.4310993" id="Fill-784-Copy" fill="#5D00AF"></path>
                            <path d="M102.320781,122.89228 C103.149293,122.789749 104.004038,122.66104 104.712317,122.205104 C106.362783,121.140527 106.443666,118.269658 104.856596,117.106912 C104.50027,116.847312 104.076177,116.666247 103.638968,116.664065 C102.524084,116.657521 101.402642,117.765729 100.425479,117.207262 C101.330502,115.640936 101.990688,113.926269 102.371061,112.148337 C100.978549,111.943275 99.3805482,111.801477 98.3421758,112.780975 C97.6164082,113.463788 97.3671988,114.530547 96.770408,115.335525 C95.611803,116.895306 93.4804071,117.143998 91.6135229,117.534488 C88.4809175,118.191123 86.3211029,121.504839 89.7335224,123.396209 C92.3698952,124.857822 99.4483156,123.25223 102.320781,122.89228" id="Fill-785-Copy" fill="#EACDB0"></path>
                            <path d="M79.5835077,124.972383 C81.430094,125.11039 84.2346667,124.682367 86.0857295,124.758371 C88.4157856,124.852376 91.2740773,124.488356 93.5504145,124.040332 L93.7026179,123.984329 L93.7854345,123.83232 C94.0562672,122.880268 94.031646,121.878213 93.9242083,120.900159 C93.8190088,119.922106 93.6332311,118.954052 93.3758281,118 C87.8539757,118.53803 82.2895959,118.618034 76.7364075,118.642035 L76.4230474,118.694038 L76.1880274,119.048058 C75.935101,119.842101 75.6821747,120.636145 75.42701,121.430188 C75.2322791,122.044222 73.3207826,124.228342 74.2563863,124.544359 C74.6100355,124.662366 75.0330716,124.634364 75.4023889,124.658366 C76.0425388,124.696368 76.6826887,124.752371 77.3228385,124.800373 C78.0749028,124.858377 78.8292052,124.91438 79.5835077,124.972383" id="Fill-786-Copy" fill="#EACDB0"></path>
                            <path d="M76.2074943,113.423709 C74.8927478,113.842764 73.4235642,112.554884 72.1779078,113.169205 C71.3630494,113.572901 71.0297907,114.615053 70.8204879,115.556281 C70.1824192,118.43262 69.9141865,121.403301 70.0239181,124.358624 C70.0442387,124.878603 70.1072328,125.46879 70.4973894,125.773757 C70.7798466,125.995351 71.1537467,126.001933 71.503262,125.999739 C72.4664612,125.995351 73.4296604,125.988769 74.3928596,125.984381 C74.7992727,125.982187 75.2483593,125.962441 75.5450409,125.661862 C75.8031132,125.400776 75.8742355,124.994885 75.9311334,124.619711 C76.4411819,121.208035 76.7988255,117.767837 77,114.318863 L76.2074943,113.423709" id="Fill-787-Copy" fill="#5D00AF"></path>
                            <path d="M92.6558733,79.9466047 C93.2916443,80.9412878 94.0798099,81.8861283 94.3893613,83 C97.1967546,78.2822984 96.2823873,72.344539 98.7968974,67.4924794 C98.9088121,67.2736058 99.0326327,67.0395627 98.9921529,66.8011855 C98.8992874,66.2767556 98.156364,66.1337293 97.5753598,66.1142257 C95.0584686,66.0318772 92.5153846,65.9495287 89.9984934,66.0383784 C87.4458847,66.1293952 87.7935348,67.3321165 88.562651,69.2521365 C89.9651571,72.7584485 90.5771164,76.6830041 92.6558733,79.9466047" id="Fill-789-Copy" fill="#EACDB0"></path>
                            <path d="M88.7494653,71.3535325 L88.5302094,71.8924405 C88.3730071,72.0380913 88.1475458,72.0089611 87.9510429,71.9604108 C85.6116237,71.3705251 84.0209841,68.8653315 82.8233505,66.4329633 C82.3372642,65.4449654 81.8615203,64.3355919 82.0373387,63.2140808 C82.1076661,62.7674184 82.304169,62.3183284 82.6496005,62.1192724 C82.9577998,61.9444914 83.3197789,61.9954692 83.6548681,62.0610121 C85.2661922,62.3862988 88.6770695,63.2335009 89.709227,64.9012025 C90.6317566,66.3965506 89.0948968,69.5304701 88.7494653,71.3535325" id="Fill-790-Copy" fill="#FFFFFF"></path>
                            <path d="M95.0331556,65.8004478 C94.9992075,65.5787445 94.9673812,65.3428033 95.0671036,65.1434737 C95.1795565,64.9197364 95.4278016,64.79363 95.6611944,64.6878632 C97.1379344,64.0146174 98.6910575,63.4959536 100.282372,63.137974 C100.984672,62.9813579 101.79306,62.8755911 102.365933,63.2945901 C102.853937,63.6485018 103.019433,64.291238 102.998216,64.8790569 C102.955781,66.0607967 102.298037,67.1571094 101.432362,67.9971413 C100.564565,68.8371731 99.4973236,69.4575356 98.4428124,70.0677283 C97.0636731,70.8630127 96.5035303,71.6338893 95.7206035,70.1897668 C95.1307562,69.099556 95.2241133,67.0208331 95.0331556,65.8004478" id="Fill-791-Copy" fill="#FFFFFF"></path>
                            <path d="M197.923387,129.36231 C200.438701,124.01539 205.535521,120.449306 209.418813,115.991701 C218.376862,105.69728 220.450893,91.0710379 227.930642,79.6688362 C235.366264,68.3857982 247.413294,61.1786005 257.36423,52.0669901 C263.145039,46.7862723 268.263924,40.7993992 272.610563,34.2784962 C276.317342,28.6910422 279.781415,22.388606 285.826994,19.4757153 C289.533773,17.6882596 293.770091,17.4278648 297.896089,17.1961576 C304.316759,16.8386665 311.200777,16.5937188 316.62856,20.0075385 C319.607221,21.8700231 321.879829,24.681404 323.733219,27.6538766 C332.051407,40.8788417 333.154614,57.2351644 337.986665,72.0887002 C340.921198,81.0811469 345.223709,89.585905 347.893472,98.6577942 C351.578187,111.196465 351.997406,124.681825 349.084937,137.419101 C348.511269,139.910505 347.805216,142.40853 346.459302,144.579957 C344.429399,147.885647 341.097712,150.156378 337.876344,152.327805 C327.086971,159.594585 315.878378,167.035697 303.081166,169.299807 C292.49037,171.171119 281.656868,169.350562 270.911623,169.416764 C258.335053,169.494 245.868803,172.16415 233.292233,171.992024 C222.635244,171.848587 207.322718,169.200504 200.659342,159.709335 C195.783163,152.769152 194.503442,136.611436 197.923387,129.36231" id="Fill-792-Copy" fill="#5D7899"></path>
                            <path d="M317.257342,113.704204 C310.30472,112.961228 303.066073,113.787242 296.55349,116.394212 C296.201459,116.223765 295.871429,116.051132 295.519398,115.8785 C294.08927,115.170488 292.615138,114.436253 291.51504,113.2759 C290.524951,112.218253 289.908896,110.909305 289.446855,109.523874 C295.849427,98.4404277 304.584208,89.41109 316.223249,83.4563598 C316.795301,83.1613549 316.289255,82.3091183 315.717204,82.5910119 C304.848232,87.9011016 294.969349,96.4081711 288.654784,106.840421 C288.566776,106.543231 288.478768,106.248226 288.39076,105.955406 C292.109093,95.9667563 296.245463,86.4675959 302.340008,77.5671863 C302.626033,77.1388828 301.943972,76.7739507 301.635945,77.1694759 C295.805423,84.8483463 290.458945,93.5542711 287.15865,102.762797 C286.542595,101.464775 285.838532,100.217013 285.002457,99.0479194 C283.330308,96.6988057 280.910091,94.5092131 278.005831,94.5245097 C276.31168,94.5332506 274.727538,95.3111897 273.319412,96.3010953 C273.055389,94.7954772 272.571345,93.327008 271.933288,91.8956875 C271.537253,91.054377 270.327145,91.7864264 270.679176,92.6168108 C271.361237,94.1530219 271.779274,95.7394932 271.95529,97.360928 C271.229225,97.9793458 270.50316,98.630542 269.799097,99.3057756 C269.27105,95.8749769 268.25896,92.5141054 266.498802,89.5465738 C266.124769,88.9150446 265.156682,89.4766467 265.508714,90.119102 C267.378881,93.5193075 267.906928,97.1271092 268.280962,100.82669 C267.444887,101.683297 266.630814,102.553016 265.794739,103.403067 C263.836564,94.8697748 259.832206,86.7014146 256.069869,78.9351354 C255.783844,78.3276436 254.881763,78.8586526 255.167789,79.4617739 C258.952127,87.8093222 262.516446,96.1350184 264.166594,105.00265 C262.384434,106.687456 260.492265,108.212741 258.292068,109.298796 C256.025866,110.415445 253.517641,111.00764 251.229437,112.063102 C250.547376,112.375589 249.865315,112.740521 249.249259,113.160084 C244.606844,111.324497 240.206451,108.750305 236.950159,104.897759 C236.686136,104.572161 236.224094,105.037613 236.488118,105.361026 C239.590396,109.174239 243.198718,112.476109 247.599112,114.523662 C246.851045,115.28849 246.278994,116.173505 245.948964,117.189633 C245.838954,117.541454 245.750947,117.864867 245.684941,118.175168 C240.184449,118.183909 234.859972,117.600455 229.337479,116.142912 C229.051453,116.072985 228.853435,116.485992 229.139461,116.599623 C234.15591,118.723659 239.898423,119.881827 245.508925,119.776936 C245.640937,123.968192 251.427454,122.838432 254.639742,122.456018 C254.859761,122.429796 255.079781,122.412314 255.299801,122.392647 C250.327356,125.174435 246.190986,129.431247 243.616756,134.470369 C243.308728,135.075676 244.232811,135.611055 244.540838,135.005749 C247.841133,128.795348 253.297622,124.459867 259.65619,122.303053 C264.188596,122.515019 268.676997,123.542074 273.121395,124.330939 C275.013564,124.667463 276.905733,124.942801 278.797902,125.18099 C280.580062,128.22719 281.416136,131.703878 281.086107,135.431867 C281.042103,135.90169 281.856176,136.017507 281.922182,135.543313 C282.472231,132.095033 282.054193,128.563714 280.734075,125.406068 C284.826441,125.858409 288.962811,126.129377 293.077179,126.297639 C296.179457,129.287023 298.753687,132.615116 300.68986,136.686185 C300.997888,137.341751 302.14199,136.869743 301.877966,136.190139 C300.46984,132.713451 298.533667,129.339468 296.091449,126.4069 C296.949526,126.433123 297.807602,126.459345 298.665679,126.481197 C300.271823,126.520531 301.943972,126.538013 303.3741,125.838742 C304.82623,125.139471 305.926329,123.487443 305.442285,121.966529 C305.04625,120.664136 303.70413,119.923346 302.47202,119.315854 C301.415925,118.797957 300.359831,118.277874 299.325738,117.759976 C305.068252,115.712423 311.008783,114.779333 317.257342,115.246971 C318.269432,115.321268 318.225429,113.809095 317.257342,113.704204" id="Fill-793-Copy" fill="#566E8C"></path>
                            <path d="M263.161722,37.1699447 C262.915887,36.278165 262.826492,35.3433806 262.580657,34.4561277 C262.156032,33.0211319 261.262087,31.7830519 260.390489,30.5766596 C259.854122,29.8501081 259.317754,29.1122396 258.602597,28.5961843 C257.865092,28.080129 256.9041,27.8175746 256.0772,28.1435043 L255.138557,29.103186 C254.713933,30.8346872 255.339695,32.6431441 256.010154,34.2931629 C256.702962,35.9431817 257.462816,37.6656293 257.261678,39.444662 C257.57456,38.9580309 257.909789,38.4736633 258.22267,37.9892956 C259.831773,40.6284203 262.960584,42.2309078 266,41.9728801 C264.83787,40.5039333 263.653392,38.9806649 263.161722,37.1699447" id="Fill-794-Copy" fill="#333333"></path>
                            <path d="M289,38.0357462 C288.294118,37.8069686 287.607843,37.4826817 286.960784,37.0717703 C286.254902,39.7793432 284.352941,42.0515721 282,43 C283.156863,41.4918442 282.901961,39.246269 283.313725,37.3205383 C283.54902,36.241063 284,35.2415488 284.470588,34.2598038 C284.941176,33.2647319 285.411765,32.2763234 285.901961,31.2967995 C286.196078,30.7259659 286.490196,30.1573534 286.803922,29.60651 C287.019608,29.2244735 287.411765,28.2493918 287.784314,28.0605947 C288.72549,27.5808279 287.941176,30.0929402 287.901961,30.5704859 C287.627451,33.1092519 288,35.7390848 289,38.0357462" id="Fill-795-Copy" fill="#333333"></path>
                            <path d="M285.99896,21.9495531 C285.99896,14.7967379 279.742702,9 271.988466,9 C264.256259,9 258,14.7967379 258,21.9495531 C258,23.1435146 258.176233,24.293661 258.506669,25.3934201 C258.528698,25.6738367 258.528698,25.9608256 258.528698,26.2631498 C258.48464,28.8416685 258.594785,31.439904 259.101454,33.9855614 C260.092763,38.9366678 262.670165,43.5438257 267.560621,46.3611367 C269.168743,47.2987798 271.041215,48.012966 272.979774,47.9998215 C275.601235,47.9801047 277.980375,46.6459348 279.808789,44.989724 C285.800698,39.5150271 286.307367,31.2887419 285.888815,23.5268968 C285.954902,23.0076878 285.99896,22.4840974 285.99896,21.9495531" id="Fill-796-Copy" fill="#EACDB0"></path>
                            <path d="M289.977504,19.4286894 C289.912624,17.6551978 291.058836,16.1083435 291.686009,14.4514712 C292.291555,12.7945988 292.096915,10.4270095 290.431663,9.88131984 C289.782864,9.67008511 289.090811,9.80430718 288.420385,9.7801032 C286.041454,9.70089018 284.181562,7.75357005 282.71095,5.86345932 C281.240338,3.97554896 279.683219,1.87420351 277.390794,1.25810222 C275.574156,0.76962192 273.606131,1.32631344 271.789492,0.831232049 C271.075813,0.633199493 270.38376,0.276740893 269.67008,0.109513401 C267.745309,-0.332759306 265.755657,0.628798769 264.176912,1.84119808 C262.598166,3.05139703 261.214061,4.55204373 259.440676,5.46519385 C258.229583,6.10329875 256.867104,6.42895229 255.591132,6.9856438 C254.31516,7.54013496 253.082441,8.40707748 252.563401,9.70969163 C252.065988,10.9969032 252.325508,12.4557431 252.174122,13.8353699 C251.979482,15.4768397 251.157669,16.9642842 250.57375,18.5111385 C250.011457,20.0579928 249.687057,21.8556884 250.44399,23.3211293 C250.919776,24.2496819 251.763215,24.9229926 252.303882,25.8207402 C253.969134,28.6702086 252.087615,33.0665314 254.531426,35.2866964 C255.245106,35.953406 256.239932,36.2482544 257.104998,36.7191319 C258.900009,37.7048939 260.565261,39.5223927 261.754727,41.2078698 C260.759901,37.8105113 260.175982,34.0258891 259.678569,30.5185125 C259.462302,29.0420698 259.310916,27.3873978 259.743449,25.9615634 C260.154355,24.535729 260.781528,23.5961745 262.25214,23.4971582 C262.64142,23.4685535 263.073953,23.5279633 263.441606,23.3717376 C264.674325,22.8414504 264.047152,20.8875292 264.544565,19.609119 C265.041978,18.3439111 266.620723,17.9478459 267.961575,17.9808514 C269.388934,18.0160572 271.032559,18.3571132 272.286905,17.4593656 C273.454744,16.6210278 273.324984,15.7144788 274.882103,15.8178958 C276.979888,15.9543182 280.851058,17.6551978 281.672871,19.7697455 C281.99727,20.5684768 282.040524,21.567441 282.732576,22.0493202 C283.208363,22.3661723 283.835535,22.3551705 284.289695,22.6852247 C284.830361,23.0790895 284.960121,23.8250121 285.025001,24.4961224 C285.717054,30.4767056 285.025001,36.1338356 283.684149,42 C286.71188,39.5069902 286.884893,35.2008823 288.896171,31.8211266 C289.566597,30.7231461 290.45329,29.7725899 291.015583,28.6262014 C291.729262,27.1673616 291.880649,25.4268755 291.426489,23.8624183 C290.993956,22.3595712 290.020757,20.9953469 289.977504,19.4286894" id="Fill-797-Copy" fill="#333333"></path>
                            <path d="M241.603405,97.7907321 C244.050602,86.6963962 240.87586,76.8739249 243.323057,65.779589 C244.469491,60.4863562 249.650493,53.763644 254.412606,51.1323513 C256.110211,50.1932293 263.716363,48.9892268 265.634436,48.6915098 C271.675264,47.7501988 277.892466,47.7699006 283.933294,48.7506154 C287.482832,49.3263475 291.076463,50.2720368 294.00869,52.3385429 C298.881036,55.7600991 301.217999,61.6575223 303.047885,67.292254 C308.603683,84.513868 311.734331,102.637389 310.852458,120.703994 C310.587896,125.920609 309.706024,131.704199 305.583269,134.955006 C303.312447,136.745686 300.402267,137.472466 297.558227,138.032874 C281.88294,141.123877 265.480108,140.563468 250.047336,136.412943 C246.321424,135.405959 236.179888,132.978253 236.003513,127.90174 C235.893279,125.1194 238.406616,121.65844 239.376676,119.075307 C240.589251,115.793853 241.581358,112.440159 242.463231,109.060196 C243.477384,105.216144 240.765626,101.669809 241.603405,97.7907321" id="Fill-798-Copy" fill="#0148DE"></path>
                            <path d="M254.153288,72.2254277 L254.175877,72.1446977 C254.672852,70.2791786 255.305365,68.4376603 255.644211,66.5394127 C256.118596,64.0411445 256.118596,61.4621461 255.644211,58.9616959 C255.440904,57.8685672 255.147237,56.7667109 254.514724,55.8437698 C253.498185,54.4080838 251.826543,53.5876917 250.200081,52.8262108 C248.980234,52.2523728 247.557079,51.6719891 246.337233,52.2196444 C245.63695,52.5316552 245.139976,53.1578587 244.75595,53.7993354 C242.225898,57.9667524 242.92618,63.1531137 242.632513,67.9750988 C242.519564,69.6638845 242.293667,71.3352151 242,73 C245.953207,72.0421487 250.154901,71.6712267 254.153288,72.2254277" id="Fill-799-Copy" fill="#0148DE"></path>
                            <path d="M230.485756,159.999698 C228.985762,160.01532 227.044593,159.426163 227.000475,157.901943 C226.978416,156.964647 227.728414,156.217043 228.456352,155.612265 C232.316632,152.30272 254.066552,133.833545 255.941546,146.230388 C257.243011,154.828954 236.441617,159.941675 230.485756,159.999698" id="Fill-800-Copy" fill="#56514C"></path>
                            <path d="M310.862755,151.169856 C311.332842,151.374495 311.80293,151.588229 312.205862,151.936116 C313.660895,153.257175 312.966956,155.9334 311.332842,157.033904 C309.698729,158.136681 307.572142,158.088932 305.624636,157.884293 C301.080457,157.409075 272.808049,149.823785 283.329056,142.929721 C287.000216,140.526348 290.134133,143.375379 293.626212,144.816948 C299.289647,147.145286 305.221704,148.727829 310.862755,151.169856" id="Fill-801-Copy" fill="#56514C"></path>
                            <path d="M268.265446,123.555163 C266.253866,121.458432 264.198557,119.318291 261.596622,118.018144 C258.863498,116.665905 255.736804,116.325132 252.697569,116.006064 C247.428105,115.450409 242.136777,114.896924 236.845448,114.341269 C230.701384,113.698792 223.442206,113.48608 219.593967,118.187445 C218.478852,119.541855 217.779172,121.297813 218.063417,123.01036 C218.500717,125.806001 221.255706,127.60971 223.748316,129.066135 C229.673729,132.53464 235.621008,136.011827 241.939992,138.766228 C247.40624,141.151639 253.113004,142.979224 258.797903,144.802468 C264.592127,146.651758 281.406308,155.522709 286.697637,150.456695 C293.300866,144.11441 272.87896,128.399783 268.265446,123.555163" id="Fill-802-Copy" fill="#0038AD"></path>
                            <path d="M319.985453,126.657707 C322.037409,124.187589 323.95839,120.801806 322.473996,117.956702 C321.862775,116.788138 320.771309,115.946598 319.592525,115.351415 C315.641417,113.33913 310.838966,113.810044 306.625907,115.227146 C302.412847,116.642067 298.549057,118.920331 294.423314,120.518386 C283.836092,124.606179 275.890218,125.565448 267.223977,132.906035 C263.25104,136.265656 243.626477,144.138201 250.415397,150.10311 C252.030767,151.524572 254.235529,152.039089 256.374803,152.379193 C278.72803,155.95683 305.490782,143.634585 319.985453,126.657707" id="Fill-803-Copy" fill="#0038AD"></path>
                            <path d="M284.758157,99.0767654 C288.690275,95.2232353 292.847085,90.9144266 293.363878,85.518613 C293.521163,83.7519579 293.274001,81.9765893 293.026839,80.2186476 C292.307823,74.9186822 291.566338,69.6034682 290.173245,64.4298481 C289.656453,62.5956636 289.094722,60.7614791 289.004845,58.8684787 C288.914968,56.9733 289.386822,54.9670245 290.757446,53.6011888 C293.094247,51.2441964 297.340934,51.6667994 299.992305,53.7144638 C302.621207,55.7621282 303.99183,58.9643268 304.980477,62.0946393 C306.530855,66.9567531 307.497032,72.1064112 306.733078,77.147151 C306.418509,79.3625496 305.766901,81.5256675 304.980477,83.6321478 C301.407867,93.1603223 294.689563,101.934782 285.230012,106.239234 C284.016672,106.790361 282.623579,107.269601 281.365302,106.825215 C279.680108,106.234877 278.12973,104.006409 279.567762,102.79088 C281.163078,101.44465 283.18531,100.625584 284.758157,99.0767654" id="Fill-804-Copy" fill="#0148DE"></path>
                            <path d="M276.550289,76.6077447 C275.536886,73.4208117 274.748685,70.1602826 274.208204,66.8618404 C273.937963,65.1512892 273.712763,63.4318173 273.577642,61.7034246 C273.532602,61.1570295 273.555122,60.472363 273.532602,59.7921569 C273.780323,59.6025912 273.960483,59.321588 274.118124,59.0495056 C274.816245,57.8229044 275.491846,56.5740013 276.144928,55.3072567 C276.257528,55.0485554 276.392648,54.74079 276.257528,54.486549 C276.099888,54.1899345 275.694527,54.1520214 275.356726,54.1542516 C274.050563,54.1587119 270.942797,53.5632528 270.019475,54.6828052 C269.051113,55.8514216 270.717597,57.8630477 271.370678,58.8420985 C271.573358,59.1699355 271.843599,59.5133839 272.158879,59.745323 C270.087035,65.2627984 268.555672,71.1148014 266.731548,76.6969521 C266.303667,78.0328323 265.875787,79.4177766 266.033427,80.8116417 C266.146027,81.8687489 266.618948,82.8544903 267.091869,83.8067789 C268.150311,85.9254537 269.321354,87.9928343 270.582476,90 C271.730999,86.9067347 273.420002,84.0164162 275.581927,81.5074591 C276.122408,80.8807774 276.707929,80.2451749 276.910609,79.4489992 C277.15833,78.5123219 276.843049,77.5310409 276.550289,76.6077447" id="Fill-805-Copy" fill="#FFFFFF"></path>
                            <path d="M291.791237,68.9090693 L291.7251,68.7897404 L291.703055,68.7593658 L291.372371,68.5228776 C291.085778,68.3818525 290.821231,68.2581844 290.534639,68.1258378 L290.270092,68 C273.118623,69.3560103 256.782842,69.5404277 239.168416,69.9374675 L238.970006,70.0285914 C238.793641,70.3063023 238.573185,70.5601474 238.308638,70.7727698 L238.110228,70.9636961 L238,71.4540294 C238.55114,75.4417845 238.837732,86.2052518 238.94796,87.6610644 C239.366827,93.6839197 239.124325,99.9345847 239.895921,105.911878 C240.270696,108.849539 240.887972,110.87813 243.930263,110.982272 C246.9946,111.086413 250.169165,110.704561 253.233502,110.544009 C265.733351,109.886615 279.688209,111.175368 292.143967,109.979909 C293.819431,97.806191 292.651015,81.785743 291.87942,69.2562079 L291.791237,68.9090693" id="Fill-806-Copy" fill="#E8E8E8"></path>
                            <path d="M260.241076,113.960111 C261.111234,114.434467 262.092952,114.608241 263.074669,114.777318 C264.413375,115.0098 265.885951,115.223495 267.068474,114.521354 C268.518738,113.668922 269.031909,111.792632 270.035938,110.421227 C270.526797,109.759007 271.151526,109.197764 271.553138,108.469792 C272.22249,107.253374 272.133243,105.628352 271.33002,104.494125 C270.549108,103.359897 269.098844,102.782216 267.804762,103.075753 C266.934603,103.270662 266.198315,103.799029 265.462027,104.315654 C263.476281,105.722284 261.468222,107.131262 259.482476,108.540241 C258.946994,108.915968 258.3892,109.324572 258.121459,109.937478 C257.541353,111.31358 259.170111,113.384778 260.241076,113.960111" id="Fill-808-Copy" fill="#EACDB0"></path>
                            <polyline id="Fill-809-Copy" fill="#9E9E9E" points="315.2 167.044 315.16 167 315 167.002 315 167.154 315.04 167.196 315.2 167.044"></polyline>
                            <path d="M317.793335,129.246902 C317.204718,128.460972 316.593462,127.464851 315.529425,127.416873 C315.303034,127.40545 315.076643,127.442004 314.850252,127.380318 C314.601222,127.311778 314.442748,127.133573 314.261635,126.969076 C313.446628,126.192284 312.405229,125.595982 311.273274,125.250996 C310.345071,124.96998 309.281033,124.864884 308.420748,125.255565 C307.266154,125.778757 306.790733,127.094733 307.085041,128.202803 C307.379349,129.313158 308.307552,130.220176 309.37159,130.885019 C310.412988,131.549861 311.612861,132.013651 312.744816,132.575682 C314.035244,133.222247 315.257755,133.994469 316.616101,134.547362 C317.725417,135.002014 319.15168,135.267037 320.102523,134.586202 C320.894891,134.026455 321.302395,132.507142 320.736417,131.716642 C320.464748,131.316823 319.785575,131.099779 319.378071,130.805055 C318.766816,130.361827 318.223477,129.827211 317.793335,129.246902" id="Fill-813-Copy" fill="#EACDB0"></path>
                        </g>
                    </g>
                </g>
            </g>
        </g>
    </g>
</svg>